P3
63 80
255
0 0 0  0 0 0  0 0 0  0 0 0  0 0 0  0 0 0
0 0 0  0 0 0  0 0 0  0 0 0  0 0 0  0 0 0
0 0 0  0 0 0  0 0 0  0 0 0  0 0 0  0 0 0
0 0 0  0 0 0  0 0 0  0 0 0  0 0 0  0 0 0
0 0 0  0 0 0  0 0 0  0 0 0  0 0 0  0 0 0
0 0 0  0 0 0  0 0 0  0 0 0  0 0 0  0 0 0
0 0 0  0 0 0  0 0 0  0 0 0  0 0 0  0 0 0
0 0 0  0 0 0  0 0 0  0 0 0  0 0 0  0 0 0
0 0 0  0 0 0  0 0 0  0 0 0  0 0 0  0 0 0
0 0 0  0 0 0  0 0 0  0 0 0  0 0 0  0 0 0
0 0 0  0 0 0  0 0 0
0 0 0  0 0 0  0 0 0  0 0 0  0 0 0  0 0 0
0 0 0  0 0 0  0 0 0  0 0 0  0 0 0  0 0 0
0 0 0  0 0 0  0 1 0  0 0 0  0 0 0  1 1 0
0 1 0  0 0 0  0 0 0  0 0 0  0 0 0  0 0 0
0 0 0  0 0 0  0 0 0  0 0 0  0 0 0  0 0 0
0 0 0  0 0 0  0 0 0  0 0 0  0 0 0  0 0 0
0 0 0  0 0 0  0 0 0  0 0 0  0 0 0  0 0 0
0 0 0  0 0 0  0 0 0  1 1 0  0 0 0  0 0 0
0 1 0  0 0 0  0 0 0  0 0 0  0 0 0  0 0 0
0 0 0  0 0 0  0 0 0  0 0 0  0 0 0  0 0 0
0 0 0  0 0 0  0 0 0
0 0 0  0 0 0  0 0 0  0 0 0  0 0 0  0 0 0
0 0 0  0 0 0  0 0 0  0 0 0  0 0 0  1 1 0
10 15 3  2 3 1  12 18 4  42 61 14  19 27 6  11 16 4
38 55 13  10 15 3  3 4 1  10 15 3  0 0 0  0 0 0
0 0 0  0 0 0  0 0 0  0 0 0  0 0 0  0 0 0
0 0 0  0 0 0  0 0 0  0 0 0  0 0 0  0 0 0
0 0 0  0 0 0  0 0 0  0 0 0  0 0 0  2 3 1
12 18 4  1 1 0  23 34 8  31 45 11  10 15 3  32 47 11
34 49 12  3 4 1  3 4 1  3 4 1  0 0 0  0 0 0
0 0 0  0 0 0  0 0 0  0 0 0  0 0 0  0 0 0
0 0 0  0 0 0  0 0 0
0 0 0  0 0 0  0 0 0  0 0 0  0 0 0  0 0 0
0 0 0  0 0 0  10 15 3  29 42 10  26 37 9  12 18 4
55 80 19  81 118 28  55 80 19  92 132 31  106 153 36  69 100 23
100 144 34  80 116 27  42 61 14  81 118 28  23 34 8  27 40 9
15 21 5  0 0 0  0 0 0  0 0 0  0 0 0  0 0 0
0 0 0  0 0 0  0 0 0  0 0 0  0 0 0  0 0 0
0 0 0  0 0 0  1 1 0  29 42 10  15 21 5  50 72 17
74 107 25  45 64 15  102 148 35  80 116 27  84 121 28  111 160 38
69 100 23  65 94 22  81 118 28  29 42 10  17 25 6  29 42 10
23 34 8  2 3 1  0 0 0  0 0 0  0 0 0  0 0 0
0 0 0  0 0 0  0 0 0
0 0 0  0 0 0  0 0 0  0 0 0  0 0 0  3 4 1
15 21 5  15 21 5  34 49 12  101 146 34  111 161 38  97 141 33
97 141 33  119 172 41  117 170 40  116 167 40  118 170 40  118 171 40
117 169 40  118 170 40  111 160 38  118 170 40  96 138 32  89 128 30
81 118 28  11 16 4  10 15 3  1 1 0  0 0 0  0 0 0
0 0 0  0 0 0  0 0 0  0 0 0  0 0 0  0 0 0
3 4 1  3 4 1  34 49 12  101 146 34  79 115 27  111 160 38
114 165 39  113 163 39  118 170 40  117 169 40  118 171 40  117 169 40
116 167 40  119 172 41  113 163 39  92 132 31  105 151 36  113 163 39
75 109 26  19 27 6  16 23 5  11 16 4  0 1 0  0 0 0
0 0 0  0 0 0  0 0 0
0 0 0  0 0 0  0 0 0  0 0 0  0 0 0  10 15 3
80 116 27  106 153 36  105 151 36  114 165 39  118 170 40  118 171 40
118 171 40  117 169 40  117 169 40  117 169 40  117 169 40  117 169 40
117 169 40  117 169 40  117 170 40  117 169 40  118 170 40  118 170 40
117 170 40  75 109 26  75 109 26  34 49 12  0 0 0  0 0 0
0 0 0  0 0 0  0 0 0  0 0 0  0 0 0  3 4 1
64 92 22  65 94 22  100 144 34  118 171 40  118 170 40  117 169 40
117 169 40  117 169 40  117 169 40  117 169 40  117 169 40  117 169 40
117 169 40  117 169 40  117 169 40  118 171 41  118 170 40  117 169 40
109 158 37  105 151 36  104 150 35  47 69 16  0 0 0  0 0 0
0 0 0  0 0 0  0 0 0
0 0 0  0 0 0  0 0 0  0 0 0  0 0 0  0 0 0
42 61 14  115 167 39  118 170 40  117 169 40  117 169 40  117 169 40
117 170 40  117 170 40  117 169 40  117 169 40  117 169 40  117 169 40
117 169 40  117 169 40  117 169 40  117 169 40  117 169 40  117 169 40
117 169 40  117 169 40  118 170 40  96 138 32  17 25 6  0 0 0
0 0 0  0 0 0  0 0 0  0 0 0  0 0 0  47 69 16
114 165 39  117 168 40  117 170 40  117 169 40  117 169 40  117 169 40
117 169 40  117 169 40  117 169 40  117 169 40  117 169 40  117 169 40
117 169 40  117 169 40  118 170 40  117 169 40  117 169 40  117 169 40
117 170 40  119 172 41  96 138 32  12 18 4  0 0 0  0 0 0
0 0 0  0 0 0  0 0 0
0 0 0  0 0 0  0 0 0  0 0 0  0 0 0  10 15 3
32 47 11  105 151 36  118 170 40  117 169 40  117 169 40  116 168 40
109 157 37  111 160 38  117 169 40  118 171 40  117 169 40  117 169 40
117 169 40  117 169 40  117 169 40  117 169 40  117 169 40  117 169 40
117 169 40  117 169 40  117 169 40  118 171 40  69 100 23  2 3 1
0 0 0  0 0 0  0 0 0  0 0 0  19 27 6  101 146 34
118 171 40  117 169 40  117 169 40  117 169 40  117 169 40  117 169 40
117 169 40  117 169 40  117 169 40  117 169 40  117 169 40  117 170 40
118 171 40  115 166 39  107 154 36  111 161 38  117 169 40  117 169 40
117 169 40  118 171 40  75 109 26  19 27 6  2 3 1  0 0 0
0 0 0  0 0 0  0 0 0
0 0 0  0 0 0  0 0 0  0 0 0  0 0 0  16 23 5
89 128 30  117 169 40  117 169 40  117 169 40  117 169 40  117 169 40
111 160 38  92 132 31  79 115 27  96 138 32  115 166 39  119 171 41
117 169 40  117 169 40  117 169 40  117 169 40  117 169 40  117 169 40
117 169 40  117 169 40  117 169 40  118 170 40  109 157 37  26 37 9
0 0 0  0 0 0  0 0 0  0 0 0  64 92 22  118 171 40
117 169 40  117 169 40  117 169 40  117 169 40  117 169 40  117 169 40
117 169 40  117 169 40  117 169 40  118 170 40  118 171 40  109 157 37
89 128 30  81 118 28  100 144 34  115 166 39  117 169 40  117 169 40
117 169 40  117 170 40  113 163 39  60 86 20  1 1 0  0 0 0
0 0 0  0 0 0  0 0 0
0 0 0  0 0 0  0 0 0  0 0 0  0 0 0  0 0 0
27 40 9  96 138 32  118 170 40  117 169 40  117 169 40  117 169 40
117 170 40  117 169 40  101 146 34  67 96 23  55 80 19  84 121 28
113 163 39  119 171 41  117 169 40  117 169 40  117 169 40  117 169 40
117 169 40  117 169 40  117 169 40  117 169 40  119 171 41  65 94 22
0 0 0  0 0 0  0 0 0  15 21 5  101 146 34  118 171 40
117 169 40  117 169 40  117 169 40  117 169 40  117 169 40  117 169 40
117 169 40  118 170 40  118 171 40  104 150 35  69 100 23  53 76 18
81 118 28  111 160 38  118 170 40  117 169 40  117 169 40  117 169 40
117 169 40  114 165 39  69 100 23  10 15 3  0 0 0  0 0 0
0 0 0  0 0 0  0 0 0
0 0 0  0 0 0  0 0 0  0 0 0  0 0 0  1 1 0
31 45 11  77 111 26  117 169 40  117 169 40  117 169 40  117 169 40
117 169 40  117 169 40  118 170 40  116 168 40  92 132 31  47 69 16
38 55 13  81 118 28  113 163 39  119 171 41  117 169 40  117 169 40
117 169 40  117 169 40  117 169 40  117 169 40  118 171 41  92 132 31
10 15 3  0 0 0  0 0 0  36 52 12  115 166 39  117 169 40
117 169 40  117 169 40  117 169 40  117 169 40  117 169 40  118 170 40
118 171 40  102 148 35  64 92 22  34 49 12  65 94 22  106 153 36
118 171 40  117 170 40  117 169 40  117 169 40  117 169 40  117 169 40
118 170 40  107 154 36  55 80 19  15 21 5  0 0 0  0 0 0
0 0 0  0 0 0  0 0 0
0 0 0  0 0 0  0 0 0  0 0 0  0 0 0  0 0 0
29 42 10  101 146 34  118 171 40  117 169 40  117 169 40  117 169 40
117 169 40  117 169 40  117 169 40  117 169 40  118 171 40  113 163 39
75 109 26  27 40 9  36 52 12  89 128 30  116 167 40  118 171 40
117 169 40  117 169 40  117 169 40  117 169 40  118 170 40  104 150 35
16 23 5  0 0 0  0 0 0  53 76 18  118 171 40  117 169 40
117 169 40  117 169 40  117 169 40  117 169 40  119 171 41  109 157 37
67 96 23  23 34 8  42 61 14  96 138 32  118 170 40  118 170 40
117 169 40  117 169 40  117 169 40  117 169 40  117 169 40  117 169 40
117 169 40  117 169 40  74 107 25  10 15 3  0 0 0  0 0 0
0 0 0  0 0 0  0 0 0
0 0 0  0 0 0  0 0 0  0 0 0  0 0 0  0 0 0
0 0 0  31 45 11  101 146 34  118 170 40  117 169 40  117 169 40
117 169 40  117 169 40  117 169 40  117 169 40  117 169 40  117 169 40
119 171 41  102 148 35  47 69 16  14 20 5  50 72 17  102 148 35
118 171 40  117 169 40  117 169 40  117 169 40  118 170 40  102 148 35
15 21 5  0 0 0  0 0 0  50 72 17  118 170 40  117 169 40
117 169 40  117 169 40  118 170 40  116 167 40  84 121 28  27 40 9
19 27 6  74 107 25  114 165 39  118 171 40  117 169 40  117 169 40
117 169 40  117 169 40  117 169 40  117 169 40  117 169 40  117 169 40
117 169 40  75 109 26  10 15 4  0 0 0  0 0 0  0 0 0
0 0 0  0 0 0  0 0 0
0 0 0  0 0 0  0 0 0  0 0 0  0 0 0  0 0 0
0 0 0  38 55 13  102 148 35  118 171 40  117 169 40  117 169 40
117 169 40  117 169 40  117 169 40  117 169 40  117 169 40  117 169 40
117 169 40  118 170 40  115 167 39  77 111 26  17 25 6  19 27 6
77 111 26  115 166 39  118 170 40  117 169 40  119 172 41  81 118 28
3 4 1  0 0 0  0 0 0  27 40 9  111 160 38  118 170 40
117 169 40  118 171 40  105 151 36  50 72 17  10 15 3  38 55 13
100 144 34  118 171 40  117 169 40  117 169 40  117 169 40  117 169 40
117 169 40  117 169 40  117 169 40  117 169 40  117 169 40  117 169 40
117 169 40  79 115 27  15 21 5  0 0 0  0 0 0  0 0 0
0 0 0  0 0 0  0 0 0
0 0 0  0 0 0  0 0 0  0 0 0  0 0 0  0 0 0
0 0 0  10 15 3  64 92 22  111 160 38  117 169 40  117 169 40
117 169 40  117 169 40  117 169 40  117 169 40  117 169 40  117 169 40
117 169 40  117 169 40  117 169 40  118 171 40  96 138 32  32 47 11
3 4 1  50 72 17  107 154 36  120 173 41  105 151 36  31 45 11
0 0 0  0 0 0  0 0 0  3 4 1  65 94 22  117 169 40
118 170 40  89 128 30  26 37 9  3 4 1  60 86 20  111 161 38
118 171 40  117 169 40  117 169 40  117 169 40  117 169 40  117 169 40
117 169 40  117 169 40  117 169 40  117 169 40  117 169 40  117 169 40
97 141 33  36 52 12  1 1 0  0 0 0  0 0 0  0 0 0
0 0 0  0 0 0  0 0 0
0 0 0  0 0 0  0 0 0  0 0 0  0 0 0  0 0 0
0 0 0  0 0 0  14 20 5  75 109 26  117 168 40  117 169 40
117 169 40  117 169 40  117 169 40  117 169 40  117 169 40  117 169 40
117 169 40  117 169 40  117 169 40  117 169 40  118 171 40  107 154 36
45 64 15  2 3 1  31 45 11  75 109 26  32 47 11  0 1 0
0 0 0  0 0 0  0 0 0  0 0 0  10 15 3  55 80 19
65 94 22  11 16 4  11 16 4  75 109 26  116 168 40  118 170 40
117 169 40  117 169 40  117 169 40  117 169 40  117 169 40  117 169 40
117 169 40  117 169 40  117 169 40  117 169 40  118 170 40  107 154 36
47 69 16  3 4 1  0 0 0  0 0 0  0 0 0  0 0 0
0 0 0  0 0 0  0 0 0
0 0 0  0 0 0  0 0 0  0 0 0  0 0 0  0 0 0
0 0 0  0 0 0  12 18 4  69 100 23  111 161 38  118 171 40
117 169 40  117 169 40  117 169 40  117 169 40  117 169 40  117 169 40
117 169 40  117 169 40  117 169 40  117 169 40  117 169 40  118 170 40
111 160 38  50 72 17  2 3 1  2 3 1  0 0 0  0 0 0
0 0 0  0 0 0  0 0 0  0 0 0  0 0 0  1 1 0
1 1 0  12 18 4  81 118 28  118 170 40  117 169 40  117 169 40
117 169 40  117 169 40  117 169 40  117 169 40  117 169 40  117 169 40
117 169 40  117 169 40  117 169 40  117 170 40  118 171 40  101 146 34
42 61 14  2 3 1  0 0 0  0 0 0  0 0 0  0 0 0
0 0 0  0 0 0  0 0 0
0 0 0  0 0 0  0 0 0  0 0 0  0 0 0  0 0 0
0 0 0  0 0 0  0 0 0  3 4 1  36 52 12  89 128 30
117 169 40  117 169 40  117 169 40  117 169 40  117 169 40  117 169 40
117 169 40  117 169 40  117 169 40  117 169 40  117 169 40  117 169 40
118 171 41  101 146 34  14 20 5  0 0 0  0 0 0  0 0 0
0 0 0  0 0 0  0 0 0  0 0 0  0 0 0  0 0 0
0 0 0  47 69 16  118 170 40  117 169 40  117 169 40  117 169 40
117 169 40  117 169 40  117 169 40  117 169 40  117 169 40  117 169 40
117 169 40  117 169 40  117 170 40  111 160 38  69 100 23  19 27 6
0 1 0  0 0 0  0 0 0  0 0 0  0 0 0  0 0 0
0 0 0  0 0 0  0 0 0
0 0 0  0 0 0  0 0 0  0 0 0  0 0 0  0 0 0
0 0 0  0 0 0  0 0 0  0 0 0  11 16 4  69 100 23
115 167 39  119 172 41  117 169 40  117 169 40  117 169 40  117 169 40
117 169 40  117 169 40  117 169 40  117 169 40  117 169 40  117 169 40
119 172 41  75 109 26  3 4 1  0 0 0  0 0 0  0 0 0
0 0 0  0 0 0  0 0 0  0 0 0  0 0 0  0 0 0
0 0 0  23 34 8  106 153 36  118 170 40  117 169 40  117 169 40
117 169 40  117 169 40  117 169 40  117 169 40  117 169 40  117 169 40
117 169 40  118 170 40  119 172 41  105 151 36  42 61 14  2 3 1
0 0 0  0 0 0  0 0 0  0 0 0  0 0 0  0 0 0
0 0 0  0 0 0  0 0 0
0 0 0  0 0 0  0 0 0  0 0 0  0 0 0  0 0 0
0 0 0  0 0 0  0 0 0  0 0 0  1 1 0  15 21 5
45 64 15  80 116 27  114 165 39  118 170 40  117 169 40  117 169 40
117 169 40  117 169 40  117 169 40  117 169 40  117 169 40  119 172 41
97 141 33  20 30 7  0 0 0  0 0 0  0 0 0  0 0 0
0 0 0  0 0 0  0 0 0  0 0 0  0 0 0  0 0 0
0 0 0  1 1 0  53 76 18  114 165 39  118 171 40  117 169 40
117 169 40  117 169 40  117 169 40  117 169 40  117 169 40  117 169 40
118 171 40  104 150 35  64 92 22  31 45 11  10 15 3  0 0 0
0 0 0  0 0 0  0 0 0  0 0 0  0 0 0  0 0 0
0 0 0  0 0 0  0 0 0
0 0 0  0 0 0  0 0 0  0 0 0  0 0 0  0 0 0
0 0 0  0 0 0  0 0 0  0 0 0  0 0 0  0 0 0
0 0 0  36 52 12  97 141 33  109 158 37  113 163 39  116 168 40
117 169 40  117 170 40  118 170 40  119 172 41  115 167 39  84 121 28
23 34 8  0 0 0  0 0 0  0 0 0  0 0 0  0 0 0
0 0 0  0 0 0  0 0 0  0 0 0  0 0 0  0 0 0
0 0 0  0 0 0  3 4 1  50 72 17  102 148 35  118 171 40
119 171 41  118 170 40  117 169 40  117 169 40  115 166 39  111 161 38
109 157 37  79 115 27  12 18 4  0 0 0  0 0 0  0 0 0
0 0 0  0 0 0  0 0 0  0 0 0  0 0 0  0 0 0
0 0 0  0 0 0  0 0 0
0 0 0  0 0 0  0 0 0  0 0 0  0 0 0  0 0 0
0 0 0  0 0 0  0 0 0  0 0 0  0 0 0  0 0 0
0 0 0  3 4 1  15 21 5  23 34 8  45 64 15  106 153 36
116 167 40  111 160 38  101 146 34  79 115 27  42 61 14  10 15 3
0 0 0  0 0 0  0 0 0  0 0 0  0 0 0  0 0 0
0 0 0  0 0 0  0 0 0  0 0 0  0 0 0  0 0 0
0 0 0  0 0 0  0 0 0  1 1 0  20 30 7  60 86 20
89 128 30  106 153 36  113 163 39  117 169 40  84 121 28  29 42 10
19 27 6  10 15 3  2 3 1  0 0 0  0 0 0  0 0 0
0 0 0  0 0 0  0 0 0  0 0 0  0 0 0  0 0 0
0 0 0  0 0 0  0 0 0
0 0 0  0 0 0  0 0 0  0 0 0  0 0 0  0 0 0
0 0 0  0 0 0  0 0 0  0 0 0  0 0 0  0 0 0
0 0 0  0 0 0  0 0 0  0 0 0  16 23 5  38 55 13
36 52 12  26 37 9  12 18 4  2 3 1  0 0 0  0 0 0
0 0 0  0 0 0  0 0 0  1 0 0  19 2 7  52 5 18
78 7 27  88 8 31  81 7 29  56 5 19  25 2 9  3 0 1
0 0 0  0 0 0  0 0 0  0 0 0  0 0 0  0 0 0
3 4 1  19 27 6  31 45 11  38 55 13  32 47 11  3 4 1
0 0 0  0 0 0  0 0 0  0 0 0  0 0 0  0 0 0
0 0 0  0 0 0  0 0 0  0 0 0  0 0 0  0 0 0
0 0 0  0 0 0  0 0 0
0 0 0  0 0 0  0 0 0  0 0 0  0 0 0  0 0 0
0 0 0  0 0 0  0 0 0  0 0 0  0 0 0  0 0 0
0 0 0  0 0 0  0 0 0  0 0 0  0 0 0  3 0 1
9 0 3  12 1 4  9 0 3  4 0 1  0 0 0  0 0 0
0 0 0  0 0 0  28 3 10  99 9 35  156 14 55  182 16 64
189 17 66  190 17 67  189 17 66  184 17 65  166 15 58  118 13 41
45 4 16  3 0 1  0 0 0  0 0 0  0 0 0  0 0 0
0 0 0  0 0 0  0 0 0  0 0 0  0 0 0  0 0 0
0 0 0  0 0 0  0 0 0  0 0 0  0 0 0  0 0 0
0 0 0  0 0 0  0 0 0  0 0 0  0 0 0  0 0 0
0 0 0  0 0 0  0 0 0
0 0 0  0 0 0  0 0 0  0 0 0  0 0 0  0 0 0
0 0 0  0 0 0  0 0 0  0 0 0  0 0 0  0 0 0
0 0 0  0 0 0  11 1 4  52 5 18  101 9 35  134 12 47
151 14 53  154 14 54  151 14 53  113 10 40  11 1 4  0 0 0
3 0 1  67 6 24  159 14 56  190 17 67  190 17 67  188 17 66
188 17 66  188 17 66  188 17 66  188 17 66  190 17 67  191 17 67
174 16 61  101 9 35  14 1 5  0 0 0  35 3 12  108 10 38
122 11 43  122 11 43  112 10 39  87 8 30  50 5 17  13 1 5
0 0 0  0 0 0  0 0 0  0 0 0  0 0 0  0 0 0
0 0 0  0 0 0  0 0 0  0 0 0  0 0 0  0 0 0
0 0 0  0 0 0  0 0 0
0 0 0  0 0 0  0 0 0  0 0 0  0 0 0  0 0 0
0 0 0  0 0 0  0 0 0  0 0 0  0 0 0  0 0 0
3 0 1  56 5 19  141 13 49  182 16 64  191 17 67  191 17 67
190 17 67  190 17 67  191 17 67  113 10 40  3 0 1  1 0 0
79 7 28  180 16 63  190 17 67  188 17 66  188 17 66  188 17 66
188 17 66  188 17 66  188 17 66  188 17 66  188 17 66  188 17 66
189 17 66  188 17 66  122 11 43  11 1 4  41 4 14  176 16 62
191 17 67  191 17 67  191 17 67  190 17 67  181 16 63  146 13 51
75 7 26  10 1 4  0 0 0  0 0 0  0 0 0  0 0 0
0 0 0  0 0 0  0 0 0  0 0 0  0 0 0  0 0 0
0 0 0  0 0 0  0 0 0
0 0 0  0 0 0  0 0 0  0 0 0  0 0 0  0 0 0
0 0 0  0 0 0  0 0 0  0 0 0  0 0 0  7 1 2
90 8 32  178 16 62  191 17 67  188 17 66  188 17 66  188 17 66
188 17 66  190 17 67  141 13 49  22 2 8  0 0 0  41 4 14
173 16 61  190 17 67  188 17 66  188 17 66  188 17 66  188 17 66
188 17 66  188 17 66  188 17 66  188 17 66  188 17 66  188 17 66
188 17 66  188 17 66  188 17 66  88 8 31  1 0 0  89 8 31
185 17 65  189 17 66  188 17 66  188 17 66  189 17 66  191 17 67
186 17 65  124 11 43  25 2 9  0 0 0  0 0 0  0 0 0
0 0 0  0 0 0  0 0 0  0 0 0  0 0 0  0 0 0
0 0 0  0 0 0  0 0 0
0 0 0  0 0 0  0 0 0  0 0 0  0 0 0  0 0 0
0 0 0  0 0 0  0 0 0  0 0 0  2 0 1  89 8 31
184 17 65  189 17 66  188 17 66  188 17 66  188 17 66  188 17 66
190 17 67  151 14 53  34 3 12  0 0 0  0 0 0  79 7 28
190 17 67  188 17 66  188 17 66  188 17 66  188 17 66  188 17 66
188 17 66  188 17 66  188 17 66  188 17 66  188 17 66  188 17 66
188 17 66  188 17 66  191 17 67  146 13 51  9 1 3  7 1 2
108 10 38  187 17 66  189 17 66  188 17 66  188 17 66  188 17 66
188 17 66  190 17 67  141 13 49  22 2 8  0 0 0  0 0 0
0 0 0  0 0 0  0 0 0  0 0 0  0 0 0  0 0 0
0 0 0  0 0 0  0 0 0
0 0 0  0 0 0  0 0 0  0 0 0  0 0 0  0 0 0
0 0 0  0 0 0  0 0 0  0 0 0  52 5 18  176 16 62
189 17 66  188 17 66  188 17 66  188 17 66  188 17 66  190 17 67
151 14 53  38 3 13  0 0 0  0 0 0  0 0 0  50 5 17
180 16 63  189 17 66  188 17 66  188 17 66  188 17 66  188 17 66
188 17 66  188 17 66  188 17 66  188 17 66  188 17 66  188 17 66
188 17 66  188 17 66  191 17 67  141 13 49  7 1 3  0 0 0
11 1 4  112 10 39  187 17 66  189 17 66  188 17 66  188 17 66
188 17 66  188 17 66  190 17 67  113 10 40  5 0 2  0 0 0
0 0 0  0 0 0  0 0 0  0 0 0  0 0 0  0 0 0
0 0 0  0 0 0  0 0 0
0 0 0  0 0 0  0 0 0  0 0 0  0 0 0  0 0 0
0 0 0  0 0 0  0 0 0  7 1 3  132 12 46  191 17 67
188 17 66  188 17 66  188 17 66  188 17 66  190 17 67  146 13 51
35 3 12  0 0 0  0 0 0  0 0 0  0 0 0  5 0 2
101 9 35  185 17 65  190 17 67  188 17 66  188 17 66  188 17 66
188 17 66  188 17 66  188 17 66  188 17 66  188 17 66  188 17 66
188 17 66  190 17 67  180 16 63  67 6 24  0 0 0  0 0 0
0 0 0  11 1 4  108 10 38  186 17 65  189 17 66  188 17 66
188 17 66  188 17 66  189 17 66  180 16 63  56 5 19  0 0 0
0 0 0  0 0 0  0 0 0  0 0 0  0 0 0  0 0 0
0 0 0  0 0 0  0 0 0
0 0 0  0 0 0  0 0 0  0 0 0  0 0 0  0 0 0
0 0 0  0 0 0  0 0 0  44 4 15  177 16 62  189 17 66
188 17 66  188 17 66  189 17 66  189 17 66  134 12 47  28 3 10
0 0 0  0 0 0  0 0 0  0 0 0  0 0 0  0 0 0
8 1 3  79 7 28  159 14 56  188 17 66  191 17 67  190 17 67
189 17 66  189 17 66  189 17 66  189 17 66  190 17 67  191 17 67
188 17 66  158 14 55  72 7 25  4 0 1  0 0 0  0 0 0
0 0 0  0 0 0  8 1 3  95 9 33  182 16 64  189 17 67
188 17 66  188 17 66  188 17 66  191 17 67  122 11 43  3 0 1
0 0 0  0 0 0  0 0 0  0 0 0  0 0 0  0 0 0
0 0 0  0 0 0  0 0 0
0 0 0  0 0 0  0 0 0  0 0 0  0 0 0  0 0 0
0 0 0  0 0 0  0 0 0  88 8 31  190 17 67  188 17 66
188 17 66  189 17 66  185 17 65  113 10 40  18 2 6  0 0 0
0 0 0  0 0 0  0 0 0  0 0 0  0 0 0  0 0 0
0 0 0  1 0 0  24 2 8  77 7 27  124 11 43  154 14 54
168 15 59  173 16 61  173 16 61  168 15 59  154 14 54  124 11 43
77 7 27  22 2 8  0 0 0  0 0 0  0 0 0  0 0 0
0 0 0  0 0 0  0 0 0  5 0 2  77 7 27  173 16 61
190 17 67  188 17 66  188 17 66  190 17 67  164 15 57  23 2 8
0 0 0  0 0 0  0 0 0  0 0 0  0 0 0  0 0 0
0 0 0  0 0 0  0 0 0
0 0 0  0 0 0  0 0 0  0 0 0  0 0 0  0 0 0
0 0 0  0 0 0  1 0 0  118 13 41  191 17 67  188 17 66
190 17 67  174 16 61  87 8 30  8 1 3  0 0 0  0 0 0
0 0 0  0 0 0  10 1 4  29 3 10  40 4 14  36 3 13
18 2 6  2 0 1  0 0 0  0 0 0  3 0 1  14 1 5
26 2 9  33 3 11  32 3 11  25 2 9  13 1 5  3 0 1
0 0 0  14 1 5  56 5 19  95 9 33  109 10 38  101 9 35
77 7 27  35 3 12  5 0 2  0 0 0  1 0 0  56 5 19
156 14 55  190 17 67  188 17 66  188 17 66  182 16 64  50 5 17
0 0 0  0 0 0  0 0 0  0 0 0  0 0 0  0 0 0
0 0 0  0 0 0  0 0 0
0 0 0  0 0 0  0 0 0  0 0 0  0 0 0  0 0 0
0 0 0  0 0 0  5 0 2  134 12 47  191 17 67  189 17 66
151 14 53  52 5 18  2 0 1  0 0 0  0 0 0  1 0 0
28 3 10  90 8 32  146 13 51  170 15 60  178 16 62  174 16 61
158 14 55  112 10 39  40 4 14  1 0 0  0 0 0  0 0 0
0 0 0  0 0 0  0 0 0  0 0 0  0 0 0  3 0 1
56 5 19  146 13 51  183 17 64  191 17 67  191 17 67  191 17 67
188 17 66  173 16 61  122 11 43  41 4 14  1 0 0  0 0 0
30 3 10  124 11 43  185 17 65  190 17 67  187 17 66  67 6 24
0 0 0  0 0 0  0 0 0  0 0 0  0 0 0  0 0 0
0 0 0  0 0 0  0 0 0
0 0 0  0 0 0  0 0 0  0 0 0  0 0 0  0 0 0
0 0 0  0 0 0  6 1 2  134 12 47  168 15 59  99 9 35
21 2 7  0 0 0  0 0 0  0 0 0  6 1 2  77 7 27
162 15 57  190 17 67  191 17 67  189 17 66  189 17 66  189 17 66
190 17 67  191 17 67  169 15 59  75 7 26  3 0 1  0 0 0
0 0 0  0 0 0  0 0 0  0 0 0  2 0 1  79 7 28
178 16 62  191 17 67  188 17 66  188 17 66  188 17 66  188 17 66
188 17 66  189 17 66  191 17 67  170 15 60  79 7 28  5 0 2
0 0 0  10 1 3  78 7 27  159 14 56  188 17 66  75 7 26
0 0 0  0 0 0  0 0 0  0 0 0  0 0 0  0 0 0
0 0 0  0 0 0  0 0 0
0 0 0  0 0 0  0 0 0  0 0 0  0 0 0  0 0 0
0 0 0  0 0 0  1 0 0  35 3 12  29 3 10  2 0 1
0 0 0  0 0 0  0 0 0  9 1 3  101 9 35  183 17 64
190 17 67  188 17 66  188 17 66  188 17 66  188 17 66  188 17 66
188 17 66  188 17 66  190 17 67  178 16 63  67 6 23  0 0 0
0 0 0  0 0 0  0 0 0  0 0 0  52 5 18  174 16 61
190 17 67  188 17 66  188 17 66  188 17 66  188 17 66  188 17 66
188 17 66  188 17 66  188 17 66  190 17 67  182 16 64  89 8 31
4 0 1  0 0 0  0 0 0  25 2 9  73 7 26  31 3 11
0 0 0  0 0 0  0 0 0  0 0 0  0 0 0  0 0 0
0 0 0  0 0 0  0 0 0
0 0 0  0 0 0  0 0 0  0 0 0  0 0 0  0 0 0
0 0 0  0 0 0  0 0 0  0 0 0  0 0 0  0 0 0
0 0 0  0 0 0  4 0 1  98 9 34  187 17 66  189 17 66
188 17 66  188 17 66  188 17 66  188 17 66  188 17 66  188 17 66
188 17 66  188 17 66  188 17 66  190 17 67  158 14 55  25 2 9
0 0 0  0 0 0  0 0 0  8 1 3  134 12 47  191 17 67
188 17 66  188 17 66  188 17 66  188 17 66  188 17 66  188 17 66
188 17 66  188 17 66  188 17 66  188 17 66  189 17 66  180 16 63
68 6 24  0 0 0  0 0 0  0 0 0  0 0 0  0 0 0
0 0 0  0 0 0  0 0 0  0 0 0  0 0 0  0 0 0
0 0 0  0 0 0  0 0 0
0 0 0  0 0 0  0 0 0  0 0 0  0 0 0  0 0 0
0 0 0  6 1 2  19 2 7  3 0 1  0 0 0  0 0 0
0 0 0  0 0 0  65 6 23  180 16 63  189 17 66  188 17 66
188 17 66  188 17 66  188 17 66  188 17 66  188 17 66  188 17 66
188 17 66  188 17 66  188 17 66  188 17 66  189 17 66  83 8 29
0 0 0  0 0 0  0 0 0  41 4 14  177 16 62  189 17 66
188 17 66  188 17 66  188 17 66  188 17 66  188 17 66  188 17 66
188 17 66  188 17 66  188 17 66  188 17 66  188 17 66  190 17 67
159 14 56  28 3 10  0 0 0  0 0 0  0 0 0  23 2 8
41 4 14  5 0 2  0 0 0  0 0 0  0 0 0  0 0 0
0 0 0  0 0 0  0 0 0
0 0 0  0 0 0  0 0 0  0 0 0  0 0 0  0 0 0
23 2 8  113 10 40  159 14 56  65 6 23  0 0 0  0 0 0
0 0 0  16 1 6  146 13 51  191 17 67  188 17 66  188 17 66
188 17 66  188 17 66  188 17 66  188 17 66  188 17 66  188 17 66
188 17 66  188 17 66  188 17 66  188 17 66  191 17 67  132 12 46
5 0 2  0 0 0  0 0 0  77 7 27  189 17 66  188 17 66
188 17 66  188 17 66  188 17 66  188 17 66  188 17 66  188 17 66
188 17 66  188 17 66  188 17 66  188 17 66  188 17 66  188 17 66
190 17 67  98 9 34  0 0 0  0 0 0  12 1 4  134 12 47
178 16 63  108 10 38  16 1 6  0 0 0  0 0 0  0 0 0
0 0 0  0 0 0  0 0 0
0 0 0  0 0 0  0 0 0  0 0 0  0 0 0  30 3 10
141 13 49  190 17 67  191 17 67  134 12 47  6 1 2  0 0 0
0 0 0  68 6 24  186 17 65  188 17 66  188 17 66  188 17 66
188 17 66  188 17 66  188 17 66  188 17 66  188 17 66  188 17 66
188 17 66  188 17 66  188 17 66  188 17 66  190 17 67  156 14 55
14 1 5  0 0 0  0 0 0  98 9 34  191 17 67  188 17 66
188 17 66  188 17 66  188 17 66  188 17 66  188 17 66  188 17 66
188 17 66  188 17 66  188 17 66  188 17 66  188 17 66  188 17 66
190 17 67  156 14 55  19 2 7  0 0 0  47 4 16  181 16 63
190 17 67  189 17 66  126 14 44  17 2 6  0 0 0  0 0 0
0 0 0  0 0 0  0 0 0
0 0 0  0 0 0  0 0 0  0 0 0  16 1 6  134 12 47
191 17 67  188 17 66  190 17 67  162 15 57  19 2 7  0 0 0
3 0 1  123 11 43  191 17 67  188 17 66  188 17 66  188 17 66
188 17 66  188 17 66  188 17 66  188 17 66  188 17 66  188 17 66
188 17 66  188 17 66  188 17 66  188 17 66  190 17 67  163 15 57
20 2 7  0 0 0  0 0 0  101 9 35  191 17 67  188 17 66
188 17 66  188 17 66  188 17 66  188 17 66  188 17 66  188 17 66
188 17 66  188 17 66  188 17 66  188 17 66  188 17 66  188 17 66
188 17 66  182 16 64  52 5 18  0 0 0  73 7 26  188 17 66
188 17 66  188 17 66  189 17 66  109 10 38  5 0 2  0 0 0
0 0 0  0 0 0  0 0 0
0 0 0  0 0 0  0 0 0  0 0 0  95 9 33  189 17 66
188 17 66  188 17 66  189 17 66  171 15 60  29 3 10  0 0 0
16 1 6  156 14 55  190 17 67  188 17 66  188 17 66  188 17 66
188 17 66  188 17 66  188 17 66  188 17 66  188 17 66  188 17 66
188 17 66  188 17 66  188 17 66  188 17 66  190 17 67  158 14 55
17 2 6  0 0 0  0 0 0  85 8 30  190 17 67  188 17 66
188 17 66  188 17 66  188 17 66  188 17 66  188 17 66  188 17 66
188 17 66  188 17 66  188 17 66  188 17 66  188 17 66  188 17 66
188 17 66  189 17 66  81 7 29  0 0 0  85 8 30  190 17 67
188 17 66  188 17 66  189 17 66  180 16 63  56 5 19  0 0 0
0 0 0  0 0 0  0 0 0
0 0 0  0 0 0  0 0 0  25 2 9  162 15 57  190 17 67
188 17 66  188 17 66  189 17 66  173 16 61  31 3 11  0 0 0
30 3 10  171 15 60  189 17 66  188 17 66  188 17 66  188 17 66
188 17 66  188 17 66  188 17 66  188 17 66  188 17 66  188 17 66
188 17 66  188 17 66  188 17 66  188 17 66  191 17 67  141 13 49
7 1 2  0 0 0  0 0 0  56 5 19  183 17 64  188 17 66
188 17 66  188 17 66  188 17 66  188 17 66  188 17 66  188 17 66
188 17 66  188 17 66  188 17 66  188 17 66  188 17 66  188 17 66
188 17 66  191 17 67  98 9 34  0 0 0  88 8 31  190 17 67
188 17 66  188 17 66  188 17 66  191 17 67  124 11 43  5 0 2
0 0 0  0 0 0  0 0 0
0 0 0  0 0 0  0 0 0  68 6 24  187 17 66  188 17 66
188 17 66  188 17 66  189 17 66  170 15 60  28 3 10  0 0 0
34 3 12  174 16 61  189 17 66  188 17 66  188 17 66  188 17 66
188 17 66  188 17 66  188 17 66  188 17 66  188 17 66  188 17 66
188 17 66  188 17 66  188 17 66  188 17 66  191 17 67  101 9 35
0 0 0  0 0 0  0 0 0  21 2 7  159 14 56  190 17 67
188 17 66  188 17 66  188 17 66  188 17 66  188 17 66  188 17 66
188 17 66  188 17 66  188 17 66  188 17 66  188 17 66  188 17 66
188 17 66  191 17 67  98 9 34  0 0 0  81 7 29  189 17 66
188 17 66  188 17 66  188 17 66  189 17 66  168 15 59  28 3 10
0 0 0  0 0 0  0 0 0
0 0 0  0 0 0  0 0 0  109 10 38  191 17 67  188 17 66
188 17 66  188 17 66  190 17 67  163 15 57  21 2 7  0 0 0
26 2 9  168 15 59  189 17 66  188 17 66  188 17 66  188 17 66
188 17 66  188 17 66  188 17 66  188 17 66  188 17 66  188 17 66
188 17 66  188 17 66  188 17 66  189 17 66  180 16 63  47 4 16
0 0 0  0 0 0  0 0 0  0 0 0  108 10 38  190 17 67
188 17 66  188 17 66  188 17 66  188 17 66  188 17 66  188 17 66
188 17 66  188 17 66  188 17 66  188 17 66  188 17 66  188 17 66
188 17 66  189 17 66  78 7 27  0 0 0  68 6 24  187 17 66
188 17 66  188 17 66  188 17 66  188 17 66  183 17 64  56 5 19
0 0 0  0 0 0  0 0 0
0 0 0  0 0 0  3 0 1  131 12 46  191 17 67  188 17 66
188 17 66  188 17 66  190 17 67  151 14 53  12 1 4  0 0 0
11 1 4  146 13 51  190 17 67  188 17 66  188 17 66  188 17 66
188 17 66  188 17 66  188 17 66  188 17 66  188 17 66  188 17 66
188 17 66  188 17 66  188 17 66  191 17 67  126 14 44  7 1 2
0 0 0  0 0 0  0 0 0  0 0 0  32 3 11  164 15 58
190 17 67  188 17 66  188 17 66  188 17 66  188 17 66  188 17 66
188 17 66  188 17 66  188 17 66  188 17 66  188 17 66  188 17 66
189 17 66  178 16 62  44 4 15  0 0 0  50 5 17  182 16 64
188 17 66  188 17 66  188 17 66  188 17 66  188 17 66  72 7 25
0 0 0  0 0 0  0 0 0
0 0 0  0 0 0  5 0 2  134 12 47  191 17 67  188 17 66
188 17 66  188 17 66  191 17 67  131 12 46  3 0 1  0 0 0
0 0 0  101 9 35  190 17 67  188 17 66  188 17 66  188 17 66
188 17 66  188 17 66  188 17 66  188 17 66  188 17 66  188 17 66
188 17 66  188 17 66  190 17 67  170 15 60  44 4 15  0 0 0
0 0 0  0 0 0  0 0 0  0 0 0  0 0 0  77 7 27
183 17 64  189 17 66  188 17 66  188 17 66  188 17 66  188 17 66
188 17 66  188 17 66  188 17 66  188 17 66  188 17 66  188 17 66
191 17 67  134 12 47  9 1 3  0 0 0  31 3 11  171 15 60
189 17 66  188 17 66  188 17 66  188 17 66  188 17 66  72 7 25
0 0 0  0 0 0  0 0 0
0 0 0  0 0 0  2 0 1  124 11 43  191 17 67  188 17 66
188 17 66  188 17 66  191 17 67  101 9 35  0 0 0  0 0 0
0 0 0  35 3 12  168 15 59  190 17 67  188 17 66  188 17 66
188 17 66  188 17 66  188 17 66  188 17 66  188 17 66  188 17 66
188 17 66  189 17 66  182 16 64  77 7 27  0 0 0  0 0 0
0 0 0  0 0 0  0 0 0  0 0 0  0 0 0  6 1 2
99 9 35  185 17 65  189 17 66  188 17 66  188 17 66  188 17 66
188 17 66  188 17 66  188 17 66  188 17 66  188 17 66  189 17 66
177 16 62  56 5 19  0 0 0  0 0 0  13 1 5  151 14 53
190 17 67  188 17 66  188 17 66  188 17 66  185 17 65  56 5 19
0 0 0  0 0 0  0 0 0
0 0 0  0 0 0  0 0 0  99 9 35  191 17 67  188 17 66
188 17 66  188 17 66  186 17 65  65 6 23  0 0 0  0 0 0
0 0 0  0 0 0  79 7 28  182 16 64  190 17 67  188 17 66
188 17 66  188 17 66  188 17 66  188 17 66  188 17 66  188 17 66
191 17 67  177 16 62  83 8 29  4 0 1  0 0 0  0 0 0
0 0 0  0 0 0  0 0 0  0 0 0  0 0 0  0 0 0
8 1 3  89 8 31  175 16 62  191 17 67  189 17 66  188 17 66
188 17 66  188 17 66  188 17 66  188 17 66  190 17 67  181 16 63
85 8 30  3 0 1  0 0 0  0 0 0  1 0 0  118 13 41
191 17 67  188 17 66  188 17 66  189 17 66  173 16 61  34 3 12
0 0 0  0 0 0  0 0 0
0 0 0  0 0 0  0 0 0  56 5 19  183 17 64  188 17 66
188 17 66  189 17 66  169 15 59  30 3 10  0 0 0  0 0 0
0 0 0  0 0 0  5 0 2  83 8 29  173 16 61  191 17 67
190 17 67  189 17 66  189 17 66  190 17 67  191 17 67  187 17 66
151 14 53  56 5 19  3 0 1  0 0 0  16 1 6  50 5 17
79 7 28  95 9 33  95 9 33  75 7 26  41 4 14  10 1 4
0 0 0  2 0 1  50 5 17  132 12 46  178 16 62  190 17 67
191 17 67  191 17 67  191 17 67  186 17 65  154 14 54  68 6 24
4 0 1  0 0 0  0 0 0  0 0 0  0 0 0  72 7 25
187 17 66  188 17 66  188 17 66  191 17 67  141 13 49  9 1 3
0 0 0  0 0 0  0 0 0
0 0 0  0 0 0  0 0 0  14 1 5  151 14 53  190 17 67
188 17 66  191 17 67  131 12 46  5 0 2  0 0 0  0 0 0
0 0 0  0 0 0  0 0 0  2 0 1  44 4 15  113 10 40
156 14 55  173 16 61  174 16 61  164 15 58  134 12 47  77 7 27
18 2 6  0 0 0  16 1 6  85 8 30  151 14 53  182 16 64
189 17 66  191 17 67  190 17 67  188 17 66  177 16 62  141 13 49
68 6 24  8 1 3  0 0 0  8 1 3  44 4 15  88 8 31
113 10 40  122 11 43  108 10 38  67 6 24  20 2 7  0 0 0
0 0 0  0 0 0  0 0 0  0 0 0  0 0 0  28 3 10
166 15 58  190 17 67  188 17 66  187 17 66  79 7 28  0 0 0
0 0 0  0 0 0  0 0 0
0 0 0  0 0 0  0 0 0  0 0 0  73 7 26  185 17 65
189 17 66  184 17 65  65 6 23  0 0 0  0 0 0  0 0 0
0 0 0  0 0 0  0 0 0  0 0 0  0 0 0  2 0 1
17 2 6  32 3 11  34 3 12  22 2 8  6 1 2  0 0 0
0 0 0  38 3 13  141 13 49  188 17 66  190 17 67  188 17 66
188 17 66  188 17 66  188 17 66  188 17 66  189 17 66  191 17 67
184 17 65  122 11 43  21 2 7  0 0 0  0 0 0  0 0 0
0 0 0  1 0 0  0 0 0  0 0 0  0 0 0  0 0 0
0 0 0  0 0 0  0 0 0  0 0 0  0 0 0  1 0 0
108 10 38  191 17 67  191 17 67  141 13 49  16 1 6  0 0 0
0 0 0  0 0 0  0 0 0
0 0 0  0 0 0  0 0 0  0 0 0  8 1 3  112 10 39
186 17 65  124 11 43  10 1 4  0 0 0  0 0 0  0 0 0
0 0 0  0 0 0  0 0 0  0 0 0  0 0 0  0 0 0
0 0 0  0 0 0  0 0 0  0 0 0  0 0 0  0 0 0
36 3 13  156 14 55  191 17 67  188 17 66  188 17 66  188 17 66
188 17 66  188 17 66  188 17 66  188 17 66  188 17 66  188 17 66
189 17 66  190 17 67  134 12 47  18 2 6  0 0 0  0 0 0
0 0 0  0 0 0  0 0 0  0 0 0  0 0 0  0 0 0
0 0 0  7 1 2  41 4 14  75 7 26  66 5 23  19 2 7
26 2 9  144 13 50  154 14 54  40 4 14  0 0 0  0 0 0
0 0 0  0 0 0  0 0 0
0 0 0  0 0 0  0 0 0  0 0 0  0 0 0  13 1 5
56 5 19  19 2 7  0 0 0  7 1 2  29 3 10  35 3 12
19 2 7  2 0 1  0 0 0  0 0 0  0 0 0  0 0 0
0 0 0  0 0 0  0 0 0  0 0 0  0 0 0  13 1 5
134 12 47  191 17 67  188 17 66  188 17 66  188 17 66  188 17 66
188 17 66  188 17 66  188 17 66  188 17 66  188 17 66  188 17 66
188 17 66  188 17 66  189 17 67  108 10 38  3 0 1  0 0 0
0 0 0  0 0 0  0 0 0  0 0 0  0 0 0  1 0 0
40 4 14  124 11 43  177 16 62  188 17 66  187 17 66  144 13 50
24 2 8  17 2 6  22 2 8  0 0 0  0 0 0  0 0 0
0 0 0  0 0 0  0 0 0
0 0 0  0 0 0  0 0 0  0 0 0  0 0 0  0 0 0
0 0 0  0 0 0  19 2 7  122 11 43  171 15 60  175 16 62
159 14 56  112 10 39  40 4 14  2 0 1  0 0 0  0 0 0
0 0 0  0 0 0  0 0 0  0 0 0  0 0 0  72 7 25
186 17 65  188 17 66  188 17 66  188 17 66  188 17 66  188 17 66
188 17 66  188 17 66  188 17 66  188 17 66  188 17 66  188 17 66
188 17 66  188 17 66  189 17 66  174 16 61  41 4 14  0 0 0
0 0 0  0 0 0  0 0 0  0 0 0  3 0 1  72 7 25
168 15 59  191 17 67  189 17 66  188 17 66  188 17 66  190 17 67
95 9 33  0 0 0  0 0 0  0 0 0  0 0 0  0 0 0
0 0 0  0 0 0  0 0 0
0 0 0  0 0 0  0 0 0  0 0 0  0 0 0  0 0 0
0 0 0  0 0 0  95 9 33  191 17 67  189 17 66  189 17 66
190 17 67  191 17 67  171 15 60  90 8 32  12 1 4  0 0 0
0 0 0  0 0 0  0 0 0  0 0 0  5 0 2  132 12 46
191 17 67  188 17 66  188 17 66  188 17 66  188 17 66  188 17 66
188 17 66  188 17 66  188 17 66  188 17 66  188 17 66  188 17 66
188 17 66  188 17 66  188 17 66  190 17 67  98 9 34  0 0 0
0 0 0  0 0 0  0 0 0  5 0 2  88 8 31  180 16 63
190 17 67  188 17 66  188 17 66  188 17 66  188 17 66  191 17 67
146 13 51  11 1 4  0 0 0  0 0 0  0 0 0  0 0 0
0 0 0  0 0 0  0 0 0
0 0 0  0 0 0  0 0 0  0 0 0  0 0 0  0 0 0
0 0 0  9 1 3  144 13 50  191 17 67  188 17 66  188 17 66
188 17 66  188 17 66  189 17 66  187 17 66  123 11 43  20 2 7
0 0 0  0 0 0  0 0 0  0 0 0  21 2 7  163 15 57
190 17 67  188 17 66  188 17 66  188 17 66  188 17 66  188 17 66
188 17 66  188 17 66  188 17 66  188 17 66  188 17 66  188 17 66
188 17 66  188 17 66  188 17 66  191 17 67  134 12 47  5 0 2
0 0 0  0 0 0  3 0 1  88 8 31  182 16 64  189 17 66
188 17 66  188 17 66  188 17 66  188 17 66  188 17 66  189 17 66
171 15 60  31 3 11  0 0 0  0 0 0  0 0 0  0 0 0
0 0 0  0 0 0  0 0 0
0 0 0  0 0 0  0 0 0  0 0 0  0 0 0  0 0 0
0 0 0  20 2 7  162 15 57  190 17 67  188 17 66  188 17 66
188 17 66  188 17 66  188 17 66  188 17 66  190 17 67  132 12 46
20 2 7  0 0 0  0 0 0  0 0 0  32 3 11  173 16 61
189 17 66  188 17 66  188 17 66  188 17 66  188 17 66  188 17 66
188 17 66  188 17 66  188 17 66  188 17 66  188 17 66  188 17 66
188 17 66  188 17 66  188 17 66  190 17 67  151 14 53  12 1 4
0 0 0  0 0 0  72 7 25  180 16 63  189 17 66  188 17 66
188 17 66  188 17 66  188 17 66  188 17 66  188 17 66  188 17 66
181 16 63  47 4 16  0 0 0  0 0 0  0 0 0  0 0 0
0 0 0  0 0 0  0 0 0
0 0 0  0 0 0  0 0 0  0 0 0  0 0 0  0 0 0
0 0 0  21 2 7  163 15 57  190 17 67  188 17 66  188 17 66
188 17 66  188 17 66  188 17 66  188 17 66  188 17 66  190 17 67
122 11 43  9 1 3  0 0 0  0 0 0  30 3 10  171 15 60
189 17 66  188 17 66  188 17 66  188 17 66  188 17 66  188 17 66
188 17 66  188 17 66  188 17 66  188 17 66  188 17 66  188 17 66
188 17 66  188 17 66  188 17 66  190 17 67  146 13 51  10 1 4
0 0 0  38 3 13  166 15 58  190 17 67  188 17 66  188 17 66
188 17 66  188 17 66  188 17 66  188 17 66  188 17 66  188 17 66
183 17 64  52 5 18  0 0 0  0 0 0  0 0 0  0 0 0
0 0 0  0 0 0  0 0 0
0 0 0  0 0 0  0 0 0  0 0 0  0 0 0  0 0 0
0 0 0  13 1 5  154 14 54  190 17 67  188 17 66  188 17 66
188 17 66  188 17 66  188 17 66  188 17 66  188 17 66  188 17 66
186 17 65  79 7 28  0 0 0  0 0 0  14 1 5  156 14 54
190 17 67  188 17 66  188 17 66  188 17 66  188 17 66  188 17 66
188 17 66  188 17 66  188 17 66  188 17 66  188 17 66  188 17 66
188 17 66  188 17 66  188 17 66  191 17 67  124 11 43  2 0 1
5 0 2  122 11 43  191 17 67  188 17 66  188 17 66  188 17 66
188 17 66  188 17 66  188 17 66  188 17 66  188 17 66  188 17 66
182 16 64  47 4 16  0 0 0  0 0 0  0 0 0  0 0 0
0 0 0  0 0 0  0 0 0
0 0 0  0 0 0  0 0 0  0 0 0  0 0 0  0 0 0
0 0 0  3 0 1  126 14 44  191 17 67  188 17 66  188 17 66
188 17 66  188 17 66  188 17 66  188 17 66  188 17 66  188 17 66
190 17 67  158 14 55  23 2 8  0 0 0  1 0 0  113 10 40
191 17 67  188 17 66  188 17 66  188 17 66  188 17 66  188 17 66
188 17 66  188 17 66  188 17 66  188 17 66  188 17 66  188 17 66
188 17 66  188 17 66  188 17 66  188 17 66  78 7 27  0 0 0
47 4 16  177 16 62  189 17 66  188 17 66  188 17 66  188 17 66
188 17 66  188 17 66  188 17 66  188 17 66  188 17 66  189 17 66
173 16 61  34 3 12  0 0 0  0 0 0  0 0 0  0 0 0
0 0 0  0 0 0  0 0 0
0 0 0  0 0 0  0 0 0  0 0 0  0 0 0  0 0 0
0 0 0  0 0 0  85 8 30  189 17 66  188 17 66  188 17 66
188 17 66  188 17 66  188 17 66  188 17 66  188 17 66  188 17 66
188 17 66  188 17 66  79 7 28  0 0 0  0 0 0  47 4 16
175 16 62  189 17 66  188 17 66  188 17 66  188 17 66  188 17 66
188 17 66  188 17 66  188 17 66  188 17 66  188 17 66  188 17 66
188 17 66  188 17 66  190 17 67  156 14 55  22 2 8  0 0 0
109 10 38  191 17 67  188 17 66  188 17 66  188 17 66  188 17 66
188 17 66  188 17 66  188 17 66  188 17 66  188 17 66  190 17 67
151 14 53  13 1 5  0 0 0  0 0 0  0 0 0  0 0 0
0 0 0  0 0 0  0 0 0
0 0 0  0 0 0  0 0 0  0 0 0  0 0 0  0 0 0
0 0 0  0 0 0  35 3 12  173 16 61  189 17 66  188 17 66
188 17 66  188 17 66  188 17 66  188 17 66  188 17 66  188 17 66
188 17 66  191 17 67  134 12 47  7 1 2  0 0 0  3 0 1
99 9 35  188 17 66  189 17 66  188 17 66  188 17 66  188 17 66
188 17 66  188 17 66  188 17 66  188 17 66  188 17 66  188 17 66
188 17 66  189 17 66  181 16 63  68 6 24  0 0 0  18 2 6
156 14 55  190 17 67  188 17 66  188 17 66  188 17 66  188 17 66
188 17 66  188 17 66  188 17 66  188 17 66  188 17 66  190 17 67
101 9 35  0 0 0  0 0 0  0 0 0  0 0 0  0 0 0
0 0 0  0 0 0  0 0 0
0 0 0  0 0 0  0 0 0  0 0 0  0 0 0  0 0 0
0 0 0  0 0 0  3 0 1  118 13 41  191 17 67  188 17 66
188 17 66  188 17 66  188 17 66  188 17 66  188 17 66  188 17 66
188 17 66  189 17 66  168 15 59  28 3 10  0 0 0  0 0 0
12 1 4  113 10 40  187 17 66  189 17 67  188 17 66  188 17 66
188 17 66  188 17 66  188 17 66  188 17 66  188 17 66  188 17 66
190 17 67  180 16 63  88 8 31  4 0 1  0 0 0  47 4 16
180 16 63  189 17 66  188 17 66  188 17 66  188 17 66  188 17 66
188 17 66  188 17 66  188 17 66  188 17 66  190 17 67  168 15 59
36 3 13  0 0 0  0 0 0  0 0 0  0 0 0  0 0 0
0 0 0  0 0 0  0 0 0
0 0 0  0 0 0  0 0 0  0 0 0  0 0 0  0 0 0
0 0 0  0 0 0  0 0 0  38 3 13  164 15 58  190 17 67
188 17 66  188 17 66  188 17 66  188 17 66  188 17 66  188 17 66
188 17 66  188 17 66  182 16 64  50 5 17  0 0 0  0 0 0
0 0 0  11 1 4  90 8 32  169 15 59  190 17 67  190 17 67
189 17 66  189 17 66  189 17 66  189 17 66  191 17 67  189 17 66
158 14 55  68 6 24  4 0 1  0 0 0  0 0 0  73 7 26
188 17 66  188 17 66  188 17 66  188 17 66  188 17 66  188 17 66
188 17 66  188 17 66  188 17 66  189 17 66  185 17 65  83 8 29
0 0 0  0 0 0  0 0 0  0 0 0  0 0 0  0 0 0
0 0 0  0 0 0  0 0 0
0 0 0  0 0 0  0 0 0  0 0 0  0 0 0  0 0 0
0 0 0  0 0 0  0 0 0  0 0 0  65 6 23  174 16 61
190 17 67  188 17 66  188 17 66  188 17 66  188 17 66  188 17 66
188 17 66  188 17 66  185 17 65  56 5 19  0 0 0  0 0 0
0 0 0  0 0 0  2 0 1  35 3 12  99 9 35  146 13 51
170 15 60  177 16 62  177 16 62  166 15 58  141 13 49  85 8 30
24 2 8  0 0 0  0 0 0  0 0 0  0 0 0  85 8 30
190 17 67  188 17 66  188 17 66  188 17 66  188 17 66  188 17 66
188 17 66  188 17 66  188 17 66  189 17 66  112 10 39  8 1 3
0 0 0  0 0 0  0 0 0  0 0 0  0 0 0  0 0 0
0 0 0  0 0 0  0 0 0
0 0 0  0 0 0  0 0 0  0 0 0  0 0 0  0 0 0
0 0 0  0 0 0  0 0 0  0 0 0  1 0 0  68 6 24
170 15 60  191 17 67  188 17 66  188 17 66  188 17 66  188 17 66
188 17 66  188 17 66  182 16 64  50 5 17  0 0 0  0 0 0
0 0 0  0 0 0  0 0 0  0 0 0  1 0 0  11 1 4
28 3 10  40 4 14  38 3 13  25 2 9  8 1 3  0 0 0
0 0 0  0 0 0  0 0 0  0 0 0  0 0 0  78 7 27
189 17 66  188 17 66  188 17 66  188 17 66  188 17 66  188 17 66
188 17 66  189 17 66  187 17 66  113 10 40  14 1 5  0 0 0
0 0 0  0 0 0  0 0 0  0 0 0  0 0 0  0 0 0
0 0 0  0 0 0  0 0 0
0 0 0  0 0 0  0 0 0  0 0 0  0 0 0  0 0 0
0 0 0  0 0 0  0 0 0  0 0 0  0 0 0  1 0 0
47 4 16  141 13 49  186 17 65  191 17 67  190 17 67  189 17 66
189 17 66  191 17 67  156 14 55  20 2 7  0 0 0  0 0 0
0 0 0  0 0 0  0 0 0  0 0 0  0 0 0  0 0 0
0 0 0  0 0 0  0 0 0  0 0 0  0 0 0  0 0 0
0 0 0  0 0 0  0 0 0  0 0 0  0 0 0  44 4 15
178 16 62  190 17 67  188 17 66  188 17 66  188 17 66  190 17 67
191 17 67  173 16 61  90 8 32  10 1 4  0 0 0  0 0 0
0 0 0  0 0 0  0 0 0  0 0 0  0 0 0  0 0 0
0 0 0  0 0 0  0 0 0
0 0 0  0 0 0  0 0 0  0 0 0  0 0 0  0 0 0
0 0 0  0 0 0  0 0 0  0 0 0  0 0 0  0 0 0
0 0 0  14 1 5  68 6 24  131 12 46  162 15 57  174 16 61
171 15 60  146 13 51  56 5 19  0 0 0  0 0 0  0 0 0
0 0 0  0 0 0  0 0 0  3 0 1  14 1 5  29 3 10
41 4 14  47 4 16  50 5 17  45 4 16  34 3 12  18 2 6
5 0 2  0 0 0  0 0 0  0 0 0  0 0 0  5 0 2
90 8 32  169 15 59  185 17 65  187 17 66  182 16 64  163 15 57
113 10 40  41 4 14  2 0 1  0 0 0  0 0 0  0 0 0
0 0 0  0 0 0  0 0 0  0 0 0  0 0 0  0 0 0
0 0 0  0 0 0  0 0 0
0 0 0  0 0 0  0 0 0  0 0 0  0 0 0  0 0 0
0 0 0  0 0 0  0 0 0  0 0 0  0 0 0  0 0 0
0 0 0  0 0 0  0 0 0  5 0 2  21 2 7  34 3 12
29 3 10  11 1 4  0 0 0  0 0 0  0 0 0  0 0 0
3 0 1  32 3 11  79 7 28  124 11 43  154 14 54  171 15 60
180 16 63  182 16 64  182 16 64  180 16 63  174 16 61  159 14 56
132 12 46  88 8 31  34 3 12  3 0 1  0 0 0  0 0 0
3 0 1  29 3 10  56 5 19  65 6 23  50 5 17  23 2 8
3 0 1  0 0 0  0 0 0  0 0 0  0 0 0  0 0 0
0 0 0  0 0 0  0 0 0  0 0 0  0 0 0  0 0 0
0 0 0  0 0 0  0 0 0
0 0 0  0 0 0  0 0 0  0 0 0  0 0 0  0 0 0
0 0 0  0 0 0  0 0 0  0 0 0  0 0 0  0 0 0
0 0 0  0 0 0  0 0 0  0 0 0  0 0 0  0 0 0
0 0 0  0 0 0  0 0 0  0 0 0  0 0 0  25 2 9
109 10 38  169 15 59  189 17 66  191 17 67  190 17 67  189 17 66
189 17 66  188 17 66  188 17 66  188 17 66  189 17 66  190 17 67
191 17 67  190 17 67  171 15 60  98 9 34  10 1 3  0 0 0
0 0 0  0 0 0  0 0 0  0 0 0  0 0 0  0 0 0
0 0 0  0 0 0  0 0 0  0 0 0  0 0 0  0 0 0
0 0 0  0 0 0  0 0 0  0 0 0  0 0 0  0 0 0
0 0 0  0 0 0  0 0 0
0 0 0  0 0 0  0 0 0  0 0 0  0 0 0  0 0 0
0 0 0  0 0 0  0 0 0  0 0 0  0 0 0  0 0 0
0 0 0  0 0 0  0 0 0  0 0 0  0 0 0  0 0 0
0 0 0  0 0 0  0 0 0  0 0 0  14 1 5  141 13 49
191 17 67  189 17 66  188 17 66  188 17 66  188 17 66  188 17 66
188 17 66  188 17 66  188 17 66  188 17 66  188 17 66  188 17 66
188 17 66  188 17 66  189 17 67  186 17 65  65 6 23  0 0 0
0 0 0  0 0 0  0 0 0  0 0 0  0 0 0  0 0 0
0 0 0  0 0 0  0 0 0  0 0 0  0 0 0  0 0 0
0 0 0  0 0 0  0 0 0  0 0 0  0 0 0  0 0 0
0 0 0  0 0 0  0 0 0
0 0 0  0 0 0  0 0 0  0 0 0  0 0 0  0 0 0
0 0 0  0 0 0  0 0 0  0 0 0  0 0 0  0 0 0
0 0 0  0 0 0  0 0 0  0 0 0  0 0 0  0 0 0
0 0 0  0 0 0  0 0 0  0 0 0  23 2 8  166 15 58
190 17 67  188 17 66  188 17 66  188 17 66  188 17 66  188 17 66
188 17 66  188 17 66  188 17 66  188 17 66  188 17 66  188 17 66
188 17 66  188 17 66  189 17 66  176 16 62  45 4 16  0 0 0
0 0 0  0 0 0  0 0 0  0 0 0  0 0 0  0 0 0
0 0 0  0 0 0  0 0 0  0 0 0  0 0 0  0 0 0
0 0 0  0 0 0  0 0 0  0 0 0  0 0 0  0 0 0
0 0 0  0 0 0  0 0 0
0 0 0  0 0 0  0 0 0  0 0 0  0 0 0  0 0 0
0 0 0  0 0 0  0 0 0  0 0 0  0 0 0  0 0 0
0 0 0  0 0 0  0 0 0  0 0 0  0 0 0  0 0 0
0 0 0  0 0 0  0 0 0  0 0 0  1 0 0  83 8 29
183 17 64  189 17 66  188 17 66  188 17 66  188 17 66  188 17 66
188 17 66  188 17 66  188 17 66  188 17 66  188 17 66  188 17 66
188 17 66  189 17 66  185 17 65  95 9 33  3 0 1  0 0 0
0 0 0  0 0 0  0 0 0  0 0 0  0 0 0  0 0 0
0 0 0  0 0 0  0 0 0  0 0 0  0 0 0  0 0 0
0 0 0  0 0 0  0 0 0  0 0 0  0 0 0  0 0 0
0 0 0  0 0 0  0 0 0
0 0 0  0 0 0  0 0 0  0 0 0  0 0 0  0 0 0
0 0 0  0 0 0  0 0 0  0 0 0  0 0 0  0 0 0
0 0 0  0 0 0  0 0 0  0 0 0  0 0 0  0 0 0
0 0 0  0 0 0  0 0 0  0 0 0  0 0 0  5 0 2
85 8 30  176 16 62  191 17 67  188 17 66  188 17 66  188 17 66
188 17 66  188 17 66  188 17 66  188 17 66  188 17 66  188 17 66
191 17 67  180 16 63  95 9 33  7 1 3  0 0 0  0 0 0
0 0 0  0 0 0  0 0 0  0 0 0  0 0 0  0 0 0
0 0 0  0 0 0  0 0 0  0 0 0  0 0 0  0 0 0
0 0 0  0 0 0  0 0 0  0 0 0  0 0 0  0 0 0
0 0 0  0 0 0  0 0 0
0 0 0  0 0 0  0 0 0  0 0 0  0 0 0  0 0 0
0 0 0  0 0 0  0 0 0  0 0 0  0 0 0  0 0 0
0 0 0  0 0 0  0 0 0  0 0 0  0 0 0  0 0 0
0 0 0  0 0 0  0 0 0  0 0 0  0 0 0  0 0 0
2 0 1  52 5 18  141 13 49  185 17 65  191 17 67  189 17 67
189 17 66  188 17 66  188 17 66  189 17 66  191 17 67  187 17 66
146 13 51  56 5 19  4 0 1  0 0 0  0 0 0  0 0 0
0 0 0  0 0 0  0 0 0  0 0 0  0 0 0  0 0 0
0 0 0  0 0 0  0 0 0  0 0 0  0 0 0  0 0 0
0 0 0  0 0 0  0 0 0  0 0 0  0 0 0  0 0 0
0 0 0  0 0 0  0 0 0
0 0 0  0 0 0  0 0 0  0 0 0  0 0 0  0 0 0
0 0 0  0 0 0  0 0 0  0 0 0  0 0 0  0 0 0
0 0 0  0 0 0  0 0 0  0 0 0  0 0 0  0 0 0
0 0 0  0 0 0  0 0 0  0 0 0  0 0 0  0 0 0
0 0 0  0 0 0  14 1 5  68 6 24  131 12 46  166 15 58
180 16 63  183 17 64  180 16 63  168 15 59  134 12 47  75 7 26
17 2 6  0 0 0  0 0 0  0 0 0  0 0 0  0 0 0
0 0 0  0 0 0  0 0 0  0 0 0  0 0 0  0 0 0
0 0 0  0 0 0  0 0 0  0 0 0  0 0 0  0 0 0
0 0 0  0 0 0  0 0 0  0 0 0  0 0 0  0 0 0
0 0 0  0 0 0  0 0 0
0 0 0  0 0 0  0 0 0  0 0 0  0 0 0  0 0 0
0 0 0  0 0 0  0 0 0  0 0 0  0 0 0  0 0 0
0 0 0  0 0 0  0 0 0  0 0 0  0 0 0  0 0 0
0 0 0  0 0 0  0 0 0  0 0 0  0 0 0  0 0 0
0 0 0  0 0 0  0 0 0  0 0 0  5 0 2  24 2 8
44 4 15  52 5 18  45 4 16  26 2 9  6 1 2  0 0 0
0 0 0  0 0 0  0 0 0  0 0 0  0 0 0  0 0 0
0 0 0  0 0 0  0 0 0  0 0 0  0 0 0  0 0 0
0 0 0  0 0 0  0 0 0  0 0 0  0 0 0  0 0 0
0 0 0  0 0 0  0 0 0  0 0 0  0 0 0  0 0 0
0 0 0  0 0 0  0 0 0
0 0 0  0 0 0  0 0 0  0 0 0  0 0 0  0 0 0
0 0 0  0 0 0  0 0 0  0 0 0  0 0 0  0 0 0
0 0 0  0 0 0  0 0 0  0 0 0  0 0 0  0 0 0
0 0 0  0 0 0  0 0 0  0 0 0  0 0 0  0 0 0
0 0 0  0 0 0  0 0 0  0 0 0  0 0 0  0 0 0
0 0 0  0 0 0  0 0 0  0 0 0  0 0 0  0 0 0
0 0 0  0 0 0  0 0 0  0 0 0  0 0 0  0 0 0
0 0 0  0 0 0  0 0 0  0 0 0  0 0 0  0 0 0
0 0 0  0 0 0  0 0 0  0 0 0  0 0 0  0 0 0
0 0 0  0 0 0  0 0 0  0 0 0  0 0 0  0 0 0
0 0 0  0 0 0  0 0 0
0 0 0  0 0 0  0 0 0  0 0 0  0 0 0  0 0 0
0 0 0  0 0 0  0 0 0  0 0 0  0 0 0  0 0 0
0 0 0  0 0 0  0 0 0  0 0 0  0 0 0  0 0 0
0 0 0  0 0 0  0 0 0  0 0 0  0 0 0  0 0 0
0 0 0  0 0 0  0 0 0  0 0 0  0 0 0  0 0 0
0 0 0  0 0 0  0 0 0  0 0 0  0 0 0  0 0 0
0 0 0  0 0 0  0 0 0  0 0 0  0 0 0  0 0 0
0 0 0  0 0 0  0 0 0  0 0 0  0 0 0  0 0 0
0 0 0  0 0 0  0 0 0  0 0 0  0 0 0  0 0 0
0 0 0  0 0 0  0 0 0  0 0 0  0 0 0  0 0 0
0 0 0  0 0 0  0 0 0
